# xmcd CD database file
#
# Track frame offsets:
#	150
#	26214
#	43035
#	58529
#	75881
#	93382
#	112111
#	133697
#	151394
#	168413
#	189472
#	215585
#	233785
#	253133
#	268048
#	286601
#	306224
#	325826
#	340592
#
# Disc length: 4792 seconds
#
# Revision: 0
# Processed by: cddbd v1.5.2PL0 Copyright (c) Steve Scherf et al.
# Submitted via: CDex 1.51
#
DISCID=0912b613
DTITLE=Instrumental - Bandari
DYEAR=2010
DGENRE=New Age
TTITLE0=The Wind Of Change
TTITLE1=Annie's Wonderland
TTITLE2=Annie's Song
TTITLE3=El Condor Pasa
TTITLE4=The Sound Of Silence
TTITLE5=Airy Voices
TTITLE6=One Day In Spring
TTITLE7=The Miracle Of Your Eyes
TTITLE8=Indian Dreams
TTITLE9=Magic Winds
TTITLE10=Gold Wings
TTITLE11=Neptune
TTITLE12=A Woodland Night
TTITLE13=Childhood Memory
TTITLE14=Turning
TTITLE15=Dreamcatcher
TTITLE16=Soong Sister
TTITLE17=Mystica
TTITLE18=Marco Polo
EXTD=YEAR: 2010
EXTT0=
EXTT1=
EXTT2=
EXTT3=
EXTT4=
EXTT5=
EXTT6=
EXTT7=
EXTT8=
EXTT9=
EXTT10=
EXTT11=
EXTT12=
EXTT13=
EXTT14=
EXTT15=
EXTT16=
EXTT17=
EXTT18=
PLAYORDER=
